<svg xmlns="http://www.w3.org/2000/svg" viewBox="0 0 751.81 501.62"><defs><style>.cls-1{isolation:isolate;}.cls-2{fill:#2c323d;}.cls-3{opacity:0.7;}.cls-4{mix-blend-mode:multiply;}.cls-5{opacity:0.4;}.cls-6{fill:none;stroke:#2c323d;stroke-miterlimit:10;stroke-width:2px;}</style></defs><g class="cls-1"><g id="BACKGROUND"><rect class="cls-2" x="0.9" y="0.81" width="750" height="500"/></g><g id="OBJECTS"><g class="cls-3"><g class="cls-4"><g class="cls-5"><line class="cls-6" x1="682.18" y1="157.27" x2="682.18" y2="500.81"/><line class="cls-6" x1="750.81" y1="157.27" x2="750.81" y2="500.81"/><line class="cls-6" x1="613.55" y1="157.27" x2="613.55" y2="500.81"/><line class="cls-6" x1="544.92" y1="157.27" x2="544.92" y2="500.81"/><line class="cls-6" x1="476.29" y1="157.27" x2="476.29" y2="500.81"/><line class="cls-6" x1="407.66" y1="157.27" x2="407.66" y2="500.81"/></g><g class="cls-5"><line class="cls-6" x1="751" y1="431.99" x2="407.47" y2="431.99"/><line class="cls-6" x1="751" y1="500.62" x2="407.47" y2="500.62"/><line class="cls-6" x1="751" y1="363.36" x2="407.47" y2="363.36"/><line class="cls-6" x1="751" y1="294.73" x2="407.47" y2="294.73"/><line class="cls-6" x1="751" y1="226.1" x2="407.47" y2="226.1"/><line class="cls-6" x1="751" y1="157.47" x2="407.47" y2="157.47"/></g></g><g class="cls-4"><g class="cls-5"><line class="cls-6" x1="275.52" y1="0.81" x2="275.52" y2="344.34"/><line class="cls-6" x1="344.15" y1="0.81" x2="344.15" y2="344.34"/><line class="cls-6" x1="206.89" y1="0.81" x2="206.89" y2="344.34"/><line class="cls-6" x1="138.26" y1="0.81" x2="138.26" y2="344.34"/><line class="cls-6" x1="69.63" y1="0.81" x2="69.63" y2="344.34"/><line class="cls-6" x1="1" y1="0.81" x2="1" y2="344.34"/></g><g class="cls-5"><line class="cls-6" x1="344.34" y1="275.52" x2="0.81" y2="275.52"/><line class="cls-6" x1="344.34" y1="344.15" x2="0.81" y2="344.15"/><line class="cls-6" x1="344.34" y1="206.89" x2="0.81" y2="206.89"/><line class="cls-6" x1="344.34" y1="138.26" x2="0.81" y2="138.26"/><line class="cls-6" x1="344.34" y1="69.63" x2="0.81" y2="69.63"/><line class="cls-6" x1="344.34" y1="1" x2="0.81" y2="1"/></g></g></g></g></g></svg>