<svg xmlns="http://www.w3.org/2000/svg" viewBox="0 0 750 500"><defs><style>.cls-1{isolation:isolate;}.cls-2{fill:#2c323d;}.cls-3{opacity:0.7;}.cls-4,.cls-7{mix-blend-mode:multiply;}.cls-5{opacity:0.4;}.cls-6{fill:none;stroke:#2c323d;stroke-miterlimit:10;stroke-width:2px;}.cls-7{fill:#353f52;opacity:0.5;}.cls-8{fill:#6a8dbd;}.cls-9{fill:#f3ebde;}.cls-10{fill:#a9d6e5;}</style></defs><g class="cls-1"><g id="BACKGROUND"><rect class="cls-2" width="750" height="500"/></g><g id="OBJECTS"><g class="cls-3"><g class="cls-4"><g class="cls-5"><line class="cls-6" x1="681.27" y1="156.47" x2="681.27" y2="500"/><line class="cls-6" x1="749.9" y1="156.47" x2="749.9" y2="500"/><line class="cls-6" x1="612.64" y1="156.47" x2="612.64" y2="500"/><line class="cls-6" x1="544.01" y1="156.47" x2="544.01" y2="500"/><line class="cls-6" x1="475.38" y1="156.47" x2="475.38" y2="500"/><line class="cls-6" x1="406.75" y1="156.47" x2="406.75" y2="500"/></g><g class="cls-5"><line class="cls-6" x1="750.1" y1="431.18" x2="406.56" y2="431.18"/><line class="cls-6" x1="750.1" y1="499.81" x2="406.56" y2="499.81"/><line class="cls-6" x1="750.1" y1="362.55" x2="406.56" y2="362.55"/><line class="cls-6" x1="750.1" y1="293.92" x2="406.56" y2="293.92"/><line class="cls-6" x1="750.1" y1="225.29" x2="406.56" y2="225.29"/><line class="cls-6" x1="750.1" y1="156.66" x2="406.56" y2="156.66"/></g></g><g class="cls-4"><g class="cls-5"><line class="cls-6" x1="274.62" x2="274.62" y2="343.53"/><line class="cls-6" x1="343.25" x2="343.25" y2="343.53"/><line class="cls-6" x1="205.99" x2="205.99" y2="343.53"/><line class="cls-6" x1="137.36" x2="137.36" y2="343.53"/><line class="cls-6" x1="68.73" x2="68.73" y2="343.53"/><line class="cls-6" x1="0.1" x2="0.1" y2="343.53"/></g><g class="cls-5"><line class="cls-6" x1="343.44" y1="274.71" x2="-0.1" y2="274.71"/><line class="cls-6" x1="343.44" y1="343.34" x2="-0.1" y2="343.34"/><line class="cls-6" x1="343.44" y1="206.08" x2="-0.1" y2="206.08"/><line class="cls-6" x1="343.44" y1="137.45" x2="-0.1" y2="137.45"/><line class="cls-6" x1="343.44" y1="68.82" x2="-0.1" y2="68.82"/><line class="cls-6" x1="343.44" y1="0.19" x2="-0.1" y2="0.19"/></g></g></g></g><g id="Layer_3" data-name="Layer 3"><path class="cls-7" d="M205.31,113.56l17.22-16a9.82,9.82,0,0,1,6.19-2.43L401.41,95a9.91,9.91,0,0,1,6.2,2.43l75-.08a9.86,9.86,0,0,1,6.2-2.45l32.43,0a10,10,0,0,1,6.2,2.42l17.26,15.94a9.23,9.23,0,0,1,2.75,6.29v1.27l0,15.41v1.27a9.18,9.18,0,0,1-2.74,6.29l-17.22,16a10,10,0,0,1-6.19,2.44l-292.5.33A9.89,9.89,0,0,1,222.6,160l-17.25-15.93a9.21,9.21,0,0,1-2.77-6.3v-1.26l0-15.42v-1.26A9.24,9.24,0,0,1,205.31,113.56Z"/><path class="cls-8" d="M505.27,171.72a6.36,6.36,0,0,0,3.66-1.43l13.2-12.09c.86-.78.61-1.42-.55-1.42l-44.68.05a6.38,6.38,0,0,0-3.66,1.43L460,170.35c-.85.78-.6,1.42.55,1.42Z"/><path class="cls-8" d="M279.48,99.9a6.28,6.28,0,0,0,3.66-1.42l13.2-12.09c.86-.78.61-1.42-.55-1.42l-44.68,0a6.28,6.28,0,0,0-3.66,1.42l-13.2,12.09c-.86.78-.61,1.42.55,1.42Z"/><path class="cls-9" d="M228.79,161.29a8.77,8.77,0,0,1-5.39-2.1l-17.26-15.94a8.08,8.08,0,0,1-2.39-5.44l0-17.94a8,8,0,0,1,2.38-5.45l17.21-16a8.72,8.72,0,0,1,5.4-2.12l172.7-.2a8.72,8.72,0,0,1,5.39,2.12l11.79,11,.06,0a3.6,3.6,0,0,0,1.34.52h.07l50.08-.06h.07a3.44,3.44,0,0,0,1.34-.52l.06,0,11.76-11a8.73,8.73,0,0,1,5.4-2.13l32.43,0a8.77,8.77,0,0,1,5.4,2.11L543.87,114a8.07,8.07,0,0,1,2.38,5.44l0,17.94a8.09,8.09,0,0,1-2.36,5.44l-17.23,16a8.83,8.83,0,0,1-5.39,2.12l-292.5.33Zm-.07-61.63a5.46,5.46,0,0,0-3.13,1.24l-17.22,16a4.76,4.76,0,0,0-1.31,3l0,17.94a4.78,4.78,0,0,0,1.33,3l17.26,15.94a5.41,5.41,0,0,0,3.11,1.21l292.5-.33a5.45,5.45,0,0,0,3.13-1.23l17.22-16a4.81,4.81,0,0,0,1.31-3l0-17.94a4.85,4.85,0,0,0-1.3-3l-17.26-15.94a5.53,5.53,0,0,0-3.13-1.22l-32.44,0a5.42,5.42,0,0,0-3.12,1.23l-11.92,11.14-.24.17a6.79,6.79,0,0,1-2.84,1.11l-.29,0-50.51.06-.28,0a6.81,6.81,0,0,1-2.85-1.1l-.24-.18-11.95-11.11a5.48,5.48,0,0,0-3.12-1.22h0Z"/><rect class="cls-8" x="434.93" y="80.5" width="12.01" height="12.01" transform="translate(881.88 173) rotate(180)"/><rect class="cls-8" x="422.97" y="92.46" width="12.01" height="12.01" transform="translate(857.95 196.93) rotate(180)"/><rect class="cls-8" x="458.86" y="80.5" width="12.01" height="12.01" transform="translate(929.73 173) rotate(180)"/><rect class="cls-8" x="446.89" y="92.46" width="12.01" height="12.01" transform="translate(905.8 196.93) rotate(180)"/><path class="cls-8" d="M226,285.26a8.62,8.62,0,0,1-5.37-2.15l-17.16-16.18a8.24,8.24,0,0,1-2.36-5.5l0-18.17a8.25,8.25,0,0,1,2.37-5.5l17.19-16.14a8.64,8.64,0,0,1,5.38-2.13l32.31,0a8.68,8.68,0,0,1,5.38,2.16l.33.32,75.6.09.34-.32a8.62,8.62,0,0,1,5.37-2.15l172,.2a8.67,8.67,0,0,1,5.37,2.15l17.15,16.17a8.28,8.28,0,0,1,2.37,5.52l0,18.16a8.22,8.22,0,0,1-2.38,5.51l-17.19,16.13a8.6,8.6,0,0,1-5.37,2.14Z"/><path class="cls-10" d="M241.91,296.15a6.2,6.2,0,0,1-3.64-1.44l-13.15-12.24c-.86-.79-.61-1.44.55-1.44l44.5.06a6.26,6.26,0,0,1,3.65,1.44L287,294.77c.85.79.6,1.44-.56,1.43Z"/><path class="cls-10" d="M466.82,223.44a6.2,6.2,0,0,1-3.64-1.44L450,209.76c-.85-.79-.61-1.44.55-1.44l44.5.06a6.21,6.21,0,0,1,3.65,1.44l13.15,12.24c.85.79.6,1.44-.55,1.43Z"/><path class="cls-9" d="M226,285.26a8.62,8.62,0,0,1-5.37-2.15l-17.16-16.18a8.24,8.24,0,0,1-2.36-5.5l0-18.17a8.25,8.25,0,0,1,2.37-5.5l17.19-16.14a8.64,8.64,0,0,1,5.38-2.13l32.31,0a8.68,8.68,0,0,1,5.38,2.16l11.71,11.12.06,0a3.48,3.48,0,0,0,1.33.53h.07l49.89.06h.07a3.35,3.35,0,0,0,1.33-.53l.07,0L340,221.77a8.62,8.62,0,0,1,5.37-2.15l172,.2a8.67,8.67,0,0,1,5.37,2.15l17.15,16.17a8.28,8.28,0,0,1,2.37,5.52l0,18.16a8.22,8.22,0,0,1-2.38,5.51l-17.19,16.13a8.6,8.6,0,0,1-5.37,2.14Zm.07-62.4a5.43,5.43,0,0,0-3.12,1.24l-17.19,16.14a4.88,4.88,0,0,0-1.3,3l0,18.16a4.89,4.89,0,0,0,1.29,3l17.16,16.18a5.43,5.43,0,0,0,3.11,1.24l291.36.34a5.46,5.46,0,0,0,3.11-1.23l17.19-16.14a4.81,4.81,0,0,0,1.31-3l0-18.17a4.91,4.91,0,0,0-1.3-3L520.5,224.45a5.41,5.41,0,0,0-3.12-1.25l-172-.2a5.35,5.35,0,0,0-3.11,1.25l-11.9,11.24-.25.18a6.58,6.58,0,0,1-2.83,1.12l-.28,0-50.32-.06-.28,0a6.83,6.83,0,0,1-2.83-1.13l-.24-.17-11.87-11.28a5.47,5.47,0,0,0-3.11-1.25Z"/><rect class="cls-10" x="300.01" y="203.8" width="11.97" height="12.16"/><rect class="cls-10" x="311.93" y="215.91" width="11.97" height="12.16"/><rect class="cls-10" x="276.18" y="203.8" width="11.97" height="12.16"/><rect class="cls-10" x="288.09" y="215.91" width="11.97" height="12.16"/><path class="cls-7" d="M547.29,361.11l-17.12-15.88a9.78,9.78,0,0,0-6.15-2.42l-171.74-.19a9.76,9.76,0,0,0-6.16,2.42L271.56,345a9.78,9.78,0,0,0-6.16-2.43l-32.25,0a9.84,9.84,0,0,0-6.16,2.41l-17.16,15.85a9.18,9.18,0,0,0-2.75,6.25v17.85a9.18,9.18,0,0,0,2.73,6.26L226.92,407a9.82,9.82,0,0,0,6.15,2.42l290.87.33a9.84,9.84,0,0,0,6.16-2.4l17.15-15.85a9.13,9.13,0,0,0,2.76-6.26V384l0-15.33v-1.25A9.2,9.2,0,0,0,547.29,361.11Z"/><path class="cls-8" d="M249,419a6.31,6.31,0,0,1-3.64-1.42l-13.13-12c-.85-.78-.6-1.41.55-1.41l44.43,0a6.3,6.3,0,0,1,3.64,1.41l13.13,12c.85.78.6,1.42-.55,1.42Z"/><path class="cls-8" d="M473.54,347.53a6.22,6.22,0,0,1-3.64-1.42l-13.13-12c-.85-.78-.6-1.41.55-1.41l44.43.05a6.25,6.25,0,0,1,3.64,1.42l13.12,12c.85.78.61,1.41-.55,1.41Z"/><path class="cls-9" d="M233.07,408.25a8.68,8.68,0,0,1-5.36-2.11l-17.13-15.89a8.08,8.08,0,0,1-2.35-5.41l0-17.84a8,8,0,0,1,2.37-5.41l17.16-15.85a8.73,8.73,0,0,1,5.36-2.1l32.26,0a8.64,8.64,0,0,1,5.37,2.12l11.7,10.92.06,0a3.46,3.46,0,0,0,1.31.52h.08l49.81.06h.07a3.66,3.66,0,0,0,1.33-.52l.06-.05,11.72-10.89a8.71,8.71,0,0,1,5.36-2.11L524,344a8.72,8.72,0,0,1,5.36,2.11L546.5,362a8.06,8.06,0,0,1,2.37,5.41l0,17.85a8.11,8.11,0,0,1-2.38,5.41l-17.16,15.84a8.65,8.65,0,0,1-5.36,2.1Zm.07-61.29a5.45,5.45,0,0,0-3.11,1.22L212.87,364a4.74,4.74,0,0,0-1.3,3l0,17.84a4.73,4.73,0,0,0,1.29,3L230,403.71a5.52,5.52,0,0,0,3.11,1.22l290.86.33a5.38,5.38,0,0,0,3.11-1.21l17.16-15.85a4.72,4.72,0,0,0,1.32-3l0-17.84a4.77,4.77,0,0,0-1.3-3l-17.13-15.89a5.5,5.5,0,0,0-3.11-1.23l-171.74-.19a5.44,5.44,0,0,0-3.1,1.22l-11.88,11.05-.24.17a6.78,6.78,0,0,1-2.83,1.1l-.29,0-50.22-.05-.29,0a6.71,6.71,0,0,1-2.82-1.11l-.24-.17L268.5,348.23a5.39,5.39,0,0,0-3.1-1.23Z"/><rect class="cls-8" x="307" y="328.23" width="11.95" height="11.95"/><rect class="cls-8" x="318.9" y="340.13" width="11.95" height="11.95"/><rect class="cls-8" x="283.21" y="328.23" width="11.95" height="11.95"/><rect class="cls-8" x="295.1" y="340.13" width="11.95" height="11.95"/></g></g></svg>